<mxfile host="app.diagrams.net" modified="2024-04-03T14:57:36.030Z" agent="Mozilla/5.0 (Windows NT 10.0; Win64; x64) AppleWebKit/537.36 (KHTML, like Gecko) Chrome/123.0.0.0 Safari/537.36" etag="iF-yhKtgkE3QpxblZrNn" version="23.1.8" type="google">
  <diagram name="Page-1" id="mSm6vk1L5-PozpJWBuhP">
    <mxGraphModel dx="1647" dy="900" grid="1" gridSize="10" guides="1" tooltips="1" connect="1" arrows="1" fold="1" page="1" pageScale="1" pageWidth="827" pageHeight="1169" math="0" shadow="0">
      <root>
        <mxCell id="0" />
        <mxCell id="1" parent="0" />
        <mxCell id="s5Gb4HgiwBon8eZCXtfs-1" value="STM32F4" style="whiteSpace=wrap;html=1;aspect=fixed;" vertex="1" parent="1">
          <mxGeometry x="386.5" y="270" width="80" height="80" as="geometry" />
        </mxCell>
        <mxCell id="s5Gb4HgiwBon8eZCXtfs-3" value="Grove 3pin" style="rounded=0;whiteSpace=wrap;html=1;" vertex="1" parent="1">
          <mxGeometry x="310" y="400" width="60" height="30" as="geometry" />
        </mxCell>
        <mxCell id="s5Gb4HgiwBon8eZCXtfs-4" value="Grove 3pin" style="rounded=0;whiteSpace=wrap;html=1;" vertex="1" parent="1">
          <mxGeometry x="396.5" y="400" width="60" height="30" as="geometry" />
        </mxCell>
        <mxCell id="s5Gb4HgiwBon8eZCXtfs-5" value="Grove 8pins" style="rounded=0;whiteSpace=wrap;html=1;" vertex="1" parent="1">
          <mxGeometry x="486.5" y="400" width="60" height="30" as="geometry" />
        </mxCell>
        <mxCell id="s5Gb4HgiwBon8eZCXtfs-6" value="" style="endArrow=classic;html=1;rounded=0;exitX=0.5;exitY=1;exitDx=0;exitDy=0;entryX=0.5;entryY=0;entryDx=0;entryDy=0;" edge="1" parent="1" source="s5Gb4HgiwBon8eZCXtfs-1" target="s5Gb4HgiwBon8eZCXtfs-5">
          <mxGeometry width="50" height="50" relative="1" as="geometry">
            <mxPoint x="476.5" y="430" as="sourcePoint" />
            <mxPoint x="526.5" y="380" as="targetPoint" />
          </mxGeometry>
        </mxCell>
        <mxCell id="s5Gb4HgiwBon8eZCXtfs-7" value="" style="endArrow=classic;html=1;rounded=0;exitX=0.5;exitY=1;exitDx=0;exitDy=0;entryX=0.5;entryY=0;entryDx=0;entryDy=0;" edge="1" parent="1" source="s5Gb4HgiwBon8eZCXtfs-1" target="s5Gb4HgiwBon8eZCXtfs-3">
          <mxGeometry width="50" height="50" relative="1" as="geometry">
            <mxPoint x="436.5" y="370" as="sourcePoint" />
            <mxPoint x="506.5" y="410" as="targetPoint" />
          </mxGeometry>
        </mxCell>
        <mxCell id="s5Gb4HgiwBon8eZCXtfs-8" value="" style="endArrow=classic;html=1;rounded=0;exitX=0.5;exitY=1;exitDx=0;exitDy=0;entryX=0.5;entryY=0;entryDx=0;entryDy=0;" edge="1" parent="1" source="s5Gb4HgiwBon8eZCXtfs-1" target="s5Gb4HgiwBon8eZCXtfs-4">
          <mxGeometry width="50" height="50" relative="1" as="geometry">
            <mxPoint x="476.5" y="430" as="sourcePoint" />
            <mxPoint x="556.5" y="370" as="targetPoint" />
          </mxGeometry>
        </mxCell>
        <mxCell id="s5Gb4HgiwBon8eZCXtfs-10" value="" style="endArrow=none;dashed=1;html=1;rounded=0;entryX=0.5;entryY=1;entryDx=0;entryDy=0;" edge="1" parent="1" target="s5Gb4HgiwBon8eZCXtfs-3">
          <mxGeometry width="50" height="50" relative="1" as="geometry">
            <mxPoint x="340.5" y="470" as="sourcePoint" />
            <mxPoint x="526.5" y="330" as="targetPoint" />
          </mxGeometry>
        </mxCell>
        <mxCell id="s5Gb4HgiwBon8eZCXtfs-11" value="Led Ring" style="rounded=0;whiteSpace=wrap;html=1;" vertex="1" parent="1">
          <mxGeometry x="310.5" y="470" width="60" height="30" as="geometry" />
        </mxCell>
        <mxCell id="s5Gb4HgiwBon8eZCXtfs-12" value="Uart robot" style="rounded=0;whiteSpace=wrap;html=1;" vertex="1" parent="1">
          <mxGeometry x="396.5" y="470" width="60" height="30" as="geometry" />
        </mxCell>
        <mxCell id="s5Gb4HgiwBon8eZCXtfs-13" value="Lcd display" style="rounded=0;whiteSpace=wrap;html=1;" vertex="1" parent="1">
          <mxGeometry x="486.5" y="470" width="60" height="30" as="geometry" />
        </mxCell>
        <mxCell id="s5Gb4HgiwBon8eZCXtfs-14" value="" style="endArrow=none;dashed=1;html=1;rounded=0;entryX=0.5;entryY=1;entryDx=0;entryDy=0;" edge="1" parent="1">
          <mxGeometry width="50" height="50" relative="1" as="geometry">
            <mxPoint x="426.21" y="470" as="sourcePoint" />
            <mxPoint x="426.21" y="430" as="targetPoint" />
          </mxGeometry>
        </mxCell>
        <mxCell id="s5Gb4HgiwBon8eZCXtfs-15" value="" style="endArrow=none;dashed=1;html=1;rounded=0;entryX=0.5;entryY=1;entryDx=0;entryDy=0;" edge="1" parent="1">
          <mxGeometry width="50" height="50" relative="1" as="geometry">
            <mxPoint x="516.21" y="470" as="sourcePoint" />
            <mxPoint x="516.21" y="430" as="targetPoint" />
          </mxGeometry>
        </mxCell>
        <mxCell id="s5Gb4HgiwBon8eZCXtfs-16" value="Jack barrel" style="endArrow=classic;html=1;rounded=0;exitX=0;exitY=0.5;exitDx=0;exitDy=0;" edge="1" parent="1" source="s5Gb4HgiwBon8eZCXtfs-17">
          <mxGeometry x="-0.0026" width="50" height="50" relative="1" as="geometry">
            <mxPoint x="790" y="103.13" as="sourcePoint" />
            <mxPoint x="730" y="100" as="targetPoint" />
            <mxPoint as="offset" />
          </mxGeometry>
        </mxCell>
        <mxCell id="s5Gb4HgiwBon8eZCXtfs-17" value="Input 12v" style="shape=process;whiteSpace=wrap;html=1;backgroundOutline=1;" vertex="1" parent="1">
          <mxGeometry x="840" y="70" width="120" height="60" as="geometry" />
        </mxCell>
        <mxCell id="s5Gb4HgiwBon8eZCXtfs-18" value="Xt30 smd" style="whiteSpace=wrap;html=1;aspect=fixed;" vertex="1" parent="1">
          <mxGeometry x="650" y="60" width="80" height="80" as="geometry" />
        </mxCell>
        <mxCell id="s5Gb4HgiwBon8eZCXtfs-19" value="Cable motors xt30 male smd" style="whiteSpace=wrap;html=1;aspect=fixed;" vertex="1" parent="1">
          <mxGeometry x="260" y="60" width="80" height="80" as="geometry" />
        </mxCell>
        <mxCell id="s5Gb4HgiwBon8eZCXtfs-20" value="16V capacitor" style="whiteSpace=wrap;html=1;aspect=fixed;" vertex="1" parent="1">
          <mxGeometry x="510" y="60" width="80" height="80" as="geometry" />
        </mxCell>
        <mxCell id="s5Gb4HgiwBon8eZCXtfs-21" value="" style="endArrow=classic;html=1;rounded=0;exitX=0;exitY=0.5;exitDx=0;exitDy=0;entryX=1;entryY=0.5;entryDx=0;entryDy=0;" edge="1" parent="1" source="s5Gb4HgiwBon8eZCXtfs-18" target="s5Gb4HgiwBon8eZCXtfs-20">
          <mxGeometry width="50" height="50" relative="1" as="geometry">
            <mxPoint x="550" y="210" as="sourcePoint" />
            <mxPoint x="600" y="160" as="targetPoint" />
          </mxGeometry>
        </mxCell>
        <mxCell id="s5Gb4HgiwBon8eZCXtfs-22" value="" style="endArrow=classic;html=1;rounded=0;exitX=0;exitY=0.5;exitDx=0;exitDy=0;entryX=1;entryY=0.5;entryDx=0;entryDy=0;" edge="1" parent="1" source="s5Gb4HgiwBon8eZCXtfs-20" target="s5Gb4HgiwBon8eZCXtfs-19">
          <mxGeometry width="50" height="50" relative="1" as="geometry">
            <mxPoint x="450" y="220" as="sourcePoint" />
            <mxPoint x="500" y="170" as="targetPoint" />
          </mxGeometry>
        </mxCell>
        <mxCell id="s5Gb4HgiwBon8eZCXtfs-23" value="Boost converter&amp;nbsp;&lt;br&gt;12v to 6v" style="whiteSpace=wrap;html=1;aspect=fixed;" vertex="1" parent="1">
          <mxGeometry x="386.5" y="140" width="80" height="80" as="geometry" />
        </mxCell>
        <mxCell id="s5Gb4HgiwBon8eZCXtfs-24" value="" style="endArrow=classic;html=1;rounded=0;entryX=0.5;entryY=0;entryDx=0;entryDy=0;" edge="1" parent="1" target="s5Gb4HgiwBon8eZCXtfs-23">
          <mxGeometry width="50" height="50" relative="1" as="geometry">
            <mxPoint x="427" y="100" as="sourcePoint" />
            <mxPoint x="530" y="260" as="targetPoint" />
          </mxGeometry>
        </mxCell>
        <mxCell id="s5Gb4HgiwBon8eZCXtfs-25" value="" style="endArrow=classic;html=1;rounded=0;exitX=0.5;exitY=1;exitDx=0;exitDy=0;entryX=0.5;entryY=0;entryDx=0;entryDy=0;" edge="1" parent="1" source="s5Gb4HgiwBon8eZCXtfs-23" target="s5Gb4HgiwBon8eZCXtfs-1">
          <mxGeometry width="50" height="50" relative="1" as="geometry">
            <mxPoint x="480" y="310" as="sourcePoint" />
            <mxPoint x="530" y="260" as="targetPoint" />
          </mxGeometry>
        </mxCell>
        <mxCell id="s5Gb4HgiwBon8eZCXtfs-26" value="" style="endArrow=classic;html=1;rounded=0;exitX=1;exitY=0.5;exitDx=0;exitDy=0;" edge="1" parent="1" source="s5Gb4HgiwBon8eZCXtfs-1">
          <mxGeometry width="50" height="50" relative="1" as="geometry">
            <mxPoint x="550" y="300" as="sourcePoint" />
            <mxPoint x="550" y="310" as="targetPoint" />
          </mxGeometry>
        </mxCell>
        <mxCell id="s5Gb4HgiwBon8eZCXtfs-27" value="USB C connector" style="rounded=1;whiteSpace=wrap;html=1;" vertex="1" parent="1">
          <mxGeometry x="547" y="280" width="120" height="60" as="geometry" />
        </mxCell>
      </root>
    </mxGraphModel>
  </diagram>
</mxfile>
